<svg width="170" height="49" viewBox="0 0 170 49" fill="none" xmlns="http://www.w3.org/2000/svg">
<rect y="0.882935" width="170" height="48" rx="5" fill="#212529"/>
<path d="M33.6623 31.3829H41.2223V32.8829H32.0623V19.6829H33.6623V31.3829ZM47.6025 33.0829C46.6558 33.0829 45.8092 32.8763 45.0625 32.4629C44.3292 32.0496 43.7558 31.4563 43.3425 30.6829C42.9292 29.8963 42.7225 28.9629 42.7225 27.8829C42.7225 26.8029 42.9292 25.8763 43.3425 25.1029C43.7558 24.3163 44.3225 23.7163 45.0425 23.3029C45.7625 22.8896 46.5825 22.6829 47.5025 22.6829C48.4358 22.6829 49.2292 22.8829 49.8825 23.2829C50.5492 23.6829 51.0558 24.2296 51.4025 24.9229C51.7492 25.6029 51.9225 26.3696 51.9225 27.2229C51.9225 27.4496 51.9158 27.6563 51.9025 27.8429C51.8892 28.0296 51.8692 28.1963 51.8425 28.3429H43.7625V26.9229H51.1425L50.3225 27.0829C50.3225 26.1229 50.0558 25.3829 49.5225 24.8629C49.0025 24.3429 48.3158 24.0829 47.4625 24.0829C46.8092 24.0829 46.2425 24.2363 45.7625 24.5429C45.2958 24.8363 44.9292 25.2696 44.6625 25.8429C44.4092 26.4029 44.2825 27.0829 44.2825 27.8829C44.2825 28.6696 44.4158 29.3496 44.6825 29.9229C44.9492 30.4963 45.3225 30.9363 45.8025 31.2429C46.2958 31.5363 46.8825 31.6829 47.5625 31.6829C48.2958 31.6829 48.8892 31.5429 49.3425 31.2629C49.8092 30.9829 50.1825 30.6029 50.4625 30.1229L51.7225 30.8629C51.4692 31.3163 51.1425 31.7096 50.7425 32.0429C50.3558 32.3763 49.8958 32.6363 49.3625 32.8229C48.8425 32.9963 48.2558 33.0829 47.6025 33.0829ZM60.8055 26.4229C60.8055 25.6763 60.6055 25.1029 60.2055 24.7029C59.8055 24.2896 59.2388 24.0829 58.5055 24.0829C57.8121 24.0829 57.2255 24.2363 56.7455 24.5429C56.2655 24.8363 55.9121 25.3163 55.6855 25.9829L54.3855 25.1829C54.6521 24.4363 55.1455 23.8363 55.8655 23.3829C56.5855 22.9163 57.4788 22.6829 58.5455 22.6829C59.2655 22.6829 59.9188 22.8096 60.5055 23.0629C61.0921 23.3029 61.5521 23.6763 61.8855 24.1829C62.2321 24.6763 62.4055 25.3163 62.4055 26.1029V30.9429C62.4055 31.4229 62.6588 31.6629 63.1655 31.6629C63.4188 31.6629 63.6655 31.6296 63.9055 31.5629L63.8255 32.8229C63.5588 32.9563 63.2121 33.0229 62.7855 33.0229C62.3988 33.0229 62.0521 32.9496 61.7455 32.8029C61.4388 32.6563 61.1988 32.4363 61.0255 32.1429C60.8521 31.8363 60.7655 31.4563 60.7655 31.0029V30.8029L61.1655 30.8629C61.0055 31.3829 60.7321 31.8096 60.3455 32.1429C59.9588 32.4629 59.5255 32.7029 59.0455 32.8629C58.5655 33.0096 58.0921 33.0829 57.6255 33.0829C57.0388 33.0829 56.4921 32.9829 55.9855 32.7829C55.4788 32.5829 55.0721 32.2829 54.7655 31.8829C54.4721 31.4696 54.3255 30.9629 54.3255 30.3629C54.3255 29.6163 54.5721 29.0029 55.0655 28.5229C55.5721 28.0296 56.2721 27.6963 57.1655 27.5229L61.1255 26.7429V28.0629L57.9055 28.7229C57.2521 28.8563 56.7655 29.0429 56.4455 29.2829C56.1255 29.5229 55.9655 29.8563 55.9655 30.2829C55.9655 30.6963 56.1255 31.0363 56.4455 31.3029C56.7788 31.5563 57.2455 31.6829 57.8455 31.6829C58.2321 31.6829 58.5988 31.6363 58.9455 31.5429C59.3055 31.4363 59.6255 31.2829 59.9055 31.0829C60.1855 30.8696 60.4055 30.6096 60.5655 30.3029C60.7255 29.9829 60.8055 29.6096 60.8055 29.1829V26.4229ZM66.2936 32.8829V22.8829H67.5936L67.8136 24.5229C68.0936 23.9096 68.5003 23.4496 69.0336 23.1429C69.5803 22.8363 70.2403 22.6829 71.0136 22.6829C71.1869 22.6829 71.3736 22.6963 71.5736 22.7229C71.7869 22.7496 71.9669 22.8029 72.1136 22.8829L71.8336 24.3429C71.6869 24.2896 71.5269 24.2496 71.3536 24.2229C71.1803 24.1963 70.9336 24.1829 70.6136 24.1829C70.2003 24.1829 69.7803 24.3029 69.3536 24.5429C68.9403 24.7829 68.5936 25.1496 68.3136 25.6429C68.0336 26.1229 67.8936 26.7363 67.8936 27.4829V32.8829H66.2936ZM74.4577 32.8829V22.8829H75.8577L75.9977 25.1229L75.7377 24.9029C75.951 24.3696 76.2377 23.9429 76.5977 23.6229C76.9577 23.2896 77.371 23.0496 77.8377 22.9029C78.3177 22.7563 78.811 22.6829 79.3177 22.6829C80.0377 22.6829 80.691 22.8229 81.2777 23.1029C81.8643 23.3696 82.331 23.7829 82.6777 24.3429C83.0377 24.9029 83.2177 25.6163 83.2177 26.4829V32.8829H81.6177V27.0429C81.6177 25.9363 81.3777 25.1696 80.8977 24.7429C80.431 24.3029 79.851 24.0829 79.1577 24.0829C78.6777 24.0829 78.1977 24.1963 77.7177 24.4229C77.2377 24.6496 76.8377 25.0163 76.5177 25.5229C76.211 26.0296 76.0577 26.7096 76.0577 27.5629V32.8829H74.4577ZM106.717 19.6829V32.8829H105.197V24.5829L105.377 21.1029H105.357L101.017 32.8829H99.6569L95.3169 21.1029H95.2969L95.4769 24.5829V32.8829H93.9569V19.6829H96.4169L99.3169 27.7029L100.317 31.0029H100.357L101.377 27.7229L104.257 19.6829H106.717ZM114.711 22.6829C115.658 22.6829 116.491 22.8896 117.211 23.3029C117.944 23.7163 118.518 24.3163 118.931 25.1029C119.344 25.8763 119.551 26.8029 119.551 27.8829C119.551 28.9629 119.344 29.8963 118.931 30.6829C118.518 31.4563 117.944 32.0496 117.211 32.4629C116.491 32.8763 115.658 33.0829 114.711 33.0829C113.778 33.0829 112.944 32.8763 112.211 32.4629C111.478 32.0496 110.904 31.4563 110.491 30.6829C110.078 29.8963 109.871 28.9629 109.871 27.8829C109.871 26.8029 110.078 25.8763 110.491 25.1029C110.904 24.3163 111.478 23.7163 112.211 23.3029C112.944 22.8896 113.778 22.6829 114.711 22.6829ZM114.711 24.0629C114.031 24.0629 113.451 24.2163 112.971 24.5229C112.491 24.8296 112.118 25.2696 111.851 25.8429C111.598 26.4029 111.471 27.0829 111.471 27.8829C111.471 28.6696 111.598 29.3496 111.851 29.9229C112.118 30.4963 112.491 30.9363 112.971 31.2429C113.451 31.5496 114.031 31.7029 114.711 31.7029C115.391 31.7029 115.971 31.5496 116.451 31.2429C116.931 30.9363 117.298 30.4963 117.551 29.9229C117.818 29.3496 117.951 28.6696 117.951 27.8829C117.951 27.0829 117.818 26.4029 117.551 25.8429C117.298 25.2696 116.931 24.8296 116.451 24.5229C115.971 24.2163 115.391 24.0629 114.711 24.0629ZM122.563 32.8829V22.8829H123.863L124.083 24.5229C124.363 23.9096 124.77 23.4496 125.303 23.1429C125.85 22.8363 126.51 22.6829 127.283 22.6829C127.456 22.6829 127.643 22.6963 127.843 22.7229C128.056 22.7496 128.236 22.8029 128.383 22.8829L128.103 24.3429C127.956 24.2896 127.796 24.2496 127.623 24.2229C127.45 24.1963 127.203 24.1829 126.883 24.1829C126.47 24.1829 126.05 24.3029 125.623 24.5429C125.21 24.7829 124.863 25.1496 124.583 25.6429C124.303 26.1229 124.163 26.7363 124.163 27.4829V32.8829H122.563ZM134.595 33.0829C133.648 33.0829 132.801 32.8763 132.055 32.4629C131.321 32.0496 130.748 31.4563 130.335 30.6829C129.921 29.8963 129.715 28.9629 129.715 27.8829C129.715 26.8029 129.921 25.8763 130.335 25.1029C130.748 24.3163 131.315 23.7163 132.035 23.3029C132.755 22.8896 133.575 22.6829 134.495 22.6829C135.428 22.6829 136.221 22.8829 136.875 23.2829C137.541 23.6829 138.048 24.2296 138.395 24.9229C138.741 25.6029 138.915 26.3696 138.915 27.2229C138.915 27.4496 138.908 27.6563 138.895 27.8429C138.881 28.0296 138.861 28.1963 138.835 28.3429H130.755V26.9229H138.135L137.315 27.0829C137.315 26.1229 137.048 25.3829 136.515 24.8629C135.995 24.3429 135.308 24.0829 134.455 24.0829C133.801 24.0829 133.235 24.2363 132.755 24.5429C132.288 24.8363 131.921 25.2696 131.655 25.8429C131.401 26.4029 131.275 27.0829 131.275 27.8829C131.275 28.6696 131.408 29.3496 131.675 29.9229C131.941 30.4963 132.315 30.9363 132.795 31.2429C133.288 31.5363 133.875 31.6829 134.555 31.6829C135.288 31.6829 135.881 31.5429 136.335 31.2629C136.801 30.9829 137.175 30.6029 137.455 30.1229L138.715 30.8629C138.461 31.3163 138.135 31.7096 137.735 32.0429C137.348 32.3763 136.888 32.6363 136.355 32.8229C135.835 32.9963 135.248 33.0829 134.595 33.0829Z" fill="white"/>
</svg>
